<?xml version="1.0" encoding="utf-8"?>
<!-- Generator: Adobe Illustrator 22.0.0, SVG Export Plug-In . SVG Version: 6.00 Build 0)  -->
<svg version="1.1" id="Layer_1" 
	xmlns="http://www.w3.org/2000/svg" 
	xmlns:xlink="http://www.w3.org/1999/xlink" x="0px" y="0px" viewBox="0 0 438 144" xml:space="preserve">
	<style type="text/css">
	.st1{fill:#ebbcc1;stroke:#7a8690;stroke-width:0.5;stroke-miterlimit:10;}
	.st2{fill:#9db2c1;}
	.st3{fill:#7a8690;}
	.st4{fill:#E3E3E3;}
	.st5{fill:#FFFFFF;}
	.st6{fill:#C2D9E9;stroke:#7a8690;stroke-width:0.5;stroke-miterlimit:10;}
	</style>
	<g>
		<circle class="st1" cx="102" cy="33" r="1.7"/>
		<path class="st1" d="M105.6,26.3c-0.9,0.7-1.9,1.3-2.1,2.6v0.8h-3v-1c0.1-1.9,1-2.8,1.9-3.4c0.9-0.7,1.6-1.2,1.6-2.4
				c0-1.3-0.7-2-1.9-2c-1.6,0-2.2,1.3-2.3,2.8h-3.2c0.1-3.1,2.1-5.4,5.3-5.4c4.1,0,5.4,2.5,5.4,4.2
				C107.4,24.7,106.5,25.6,105.6,26.3z"/>
	</g>
	<g>
		<circle class="st1" cx="327.5" cy="102.6" r="3"/>
		<path class="st1" d="M333.9,90.6c-1.7,1.3-3.5,2.3-3.8,4.6v1.5h-5.3v-1.8c0.2-3.4,1.8-4.9,3.4-6.2c1.5-1.2,2.9-2.1,2.9-4.2
				c0-2.4-1.3-3.5-3.3-3.5c-2.8,0-4,2.3-4,5.1h-5.8c0.1-5.6,3.8-9.7,9.5-9.7c7.4,0,9.8,4.5,9.8,7.6
				C337.2,87.8,335.6,89.3,333.9,90.6z"/>
	</g>
	<g>
		<g>
			<path class="st2" d="M130.7,116.3c-7.7,0-14-6.3-14-14s6.3-14,14-14s14,6.3,14,14S138.5,116.3,130.7,116.3z M130.7,89.5
					c-7,0-12.7,5.7-12.7,12.7c0,7,5.7,12.7,12.7,12.7c7,0,12.7-5.7,12.7-12.7C143.4,95.2,137.7,89.5,130.7,89.5z"/>
		</g>
		<g>
			<path class="st2" d="M138.7,100.2c-0.4,0-0.7-0.3-0.7-0.7c0-2.6-2.1-4.7-4.7-4.7c-0.4,0-0.7-0.3-0.7-0.7s0.3-0.7,0.7-0.7
					c3.3,0,6,2.7,6,6C139.4,99.9,139.1,100.2,138.7,100.2z"/>
		</g>
	</g>
	<g>
		<g>
			<path class="st2" d="M409.6,119c-7.7,0-14-6.3-14-14c0-7.7,6.3-14,14-14c7.7,0,14,6.3,14,14C423.6,112.7,417.3,119,409.6,119z
					 M409.6,92.3c-7,0-12.7,5.7-12.7,12.7c0,7,5.7,12.7,12.7,12.7s12.7-5.7,12.7-12.7C422.3,98,416.6,92.3,409.6,92.3z"/>
		</g>
		<g>
			<path class="st2" d="M417.6,103c-0.4,0-0.7-0.3-0.7-0.7c0-2.6-2.1-4.7-4.7-4.7c-0.4,0-0.7-0.3-0.7-0.7c0-0.4,0.3-0.7,0.7-0.7
					c3.3,0,6,2.7,6,6C418.3,102.7,418,103,417.6,103z"/>
		</g>
	</g>
	<g>
		<g>
			<path class="st2" d="M346.4,61c-7.7,0-14-6.3-14-14s6.3-14,14-14c7.7,0,14,6.3,14,14S354.2,61,346.4,61z M346.4,34.3
					c-7,0-12.7,5.7-12.7,12.7s5.7,12.7,12.7,12.7S359.2,54,359.2,47S353.5,34.3,346.4,34.3z"/>
		</g>
		<g>
			<path class="st2" d="M354.5,45c-0.4,0-0.7-0.3-0.7-0.7c0-2.6-2.1-4.7-4.7-4.7c-0.4,0-0.7-0.3-0.7-0.7c0-0.4,0.3-0.7,0.7-0.7
					c3.3,0,6,2.7,6,6C355.1,44.7,354.8,45,354.5,45z"/>
		</g>
	</g>
	<g>
		<g>
			<path class="st2" d="M51.9,51.1c-3.6,0-6.6-3-6.6-6.6s3-6.6,6.6-6.6c3.6,0,6.6,3,6.6,6.6S55.6,51.1,51.9,51.1z M51.9,39.2
					c-2.9,0-5.3,2.4-5.3,5.3c0,2.9,2.4,5.3,5.3,5.3c2.9,0,5.3-2.4,5.3-5.3C57.2,41.6,54.8,39.2,51.9,39.2z"/>
		</g>
	</g>
	<g>
		<g>
			<path class="st2" d="M293.9,124.7c-3.6,0-6.6-3-6.6-6.6s3-6.6,6.6-6.6c3.6,0,6.6,3,6.6,6.6S297.6,124.7,293.9,124.7z
					 M293.9,112.9c-2.9,0-5.3,2.4-5.3,5.3c0,2.9,2.4,5.3,5.3,5.3c2.9,0,5.3-2.4,5.3-5.3C299.2,115.2,296.9,112.9,293.9,112.9z"/>
		</g>
	</g>
	<g>
		<g>
			<path class="st3" d="M293.9,45.8c-0.4,0-0.7-0.3-0.7-0.7V30.6c0-0.4,0.3-0.7,0.7-0.7s0.7,0.3,0.7,0.7v14.5
					C294.6,45.5,294.3,45.8,293.9,45.8z"/>
		</g>
		<g>
			<path class="st3" d="M301.2,38.5h-14.5c-0.4,0-0.7-0.3-0.7-0.7c0-0.4,0.3-0.7,0.7-0.7h14.5c0.4,0,0.7,0.3,0.7,0.7
					C301.8,38.2,301.5,38.5,301.2,38.5z"/>
		</g>
	</g>
	<g>
		<g>
			<path class="st3" d="M24.8,119.8c-0.4,0-0.7-0.3-0.7-0.7v-14.5c0-0.4,0.3-0.7,0.7-0.7c0.4,0,0.7,0.3,0.7,0.7v14.5
					C25.5,119.5,25.2,119.8,24.8,119.8z"/>
		</g>
		<g>
			<path class="st3" d="M32.1,112.6H17.6c-0.4,0-0.7-0.3-0.7-0.7c0-0.4,0.3-0.7,0.7-0.7h14.5c0.4,0,0.7,0.3,0.7,0.7
					C32.7,112.3,32.4,112.6,32.1,112.6z"/>
		</g>
	</g>
	<g>
		<path class="st3" d="M395.1,65.9c-2.5,0-4.6-2.1-4.6-4.6c0-2.5,2.1-4.6,4.6-4.6s4.6,2.1,4.6,4.6
				C399.7,63.8,397.7,65.9,395.1,65.9z M395.1,58c-1.8,0-3.3,1.5-3.3,3.3c0,1.8,1.5,3.3,3.3,3.3s3.3-1.5,3.3-3.3
				C398.4,59.4,396.9,58,395.1,58z"/>
	</g>
	<g>
		<path class="st3" d="M76.8,84.3c-2.5,0-4.6-2.1-4.6-4.6s2.1-4.6,4.6-4.6c2.5,0,4.6,2.1,4.6,4.6S79.3,84.3,76.8,84.3z M76.8,76.4
				c-1.8,0-3.3,1.5-3.3,3.3S75,83,76.8,83s3.3-1.5,3.3-3.3S78.6,76.4,76.8,76.4z"/>
	</g>
	<path class="st4" d="M281.6,104.2c2,1,2.7,2.1,1.8,3.5c-6.7,9.7-36.8,9.8-51.4,10c-18.3,0.2-37.4,0.8-54-1.3
			c-6.9-0.9-22.6-1.6-25.3-4.8c-7-8.4,43-11.5,51.1-11.7C217.4,99.6,270.2,98.7,281.6,104.2z"/>
	<g>
		<polygon class="st5" points="260.2,110.3 252,110.9 178.5,110.9 175.4,110.6 173.1,105.1 173.4,46.9 264.9,46.9 263.8,107.3 			
				"/>
		<g>
			<polygon class="st6" points="263.9,47.6 173.4,47.2 175.2,30 262.8,30.2 264.5,41.3 				"/>
			<path class="st3" d="M240.5,65.6c-0.1,2-1.6,3.9-3.7,3.6c-2-0.2-3.3-2-3.4-3.9c0-0.7-1.4-0.4-1.4,0.1c0.2,6.2,9.5,6,9.9,0
					C241.9,64.8,240.5,65,240.5,65.6L240.5,65.6z"/>
			<path class="st3" d="M199.6,65.3c0.2,6.1,9.5,5.7,9.9-0.1c0-0.6-1.4-0.3-1.4,0.2c-0.1,2.1-1.8,4.2-4.1,3.6c-1.9-0.4-2.9-2.2-3-4
					C201,64.4,199.6,64.7,199.6,65.3L199.6,65.3z"/>
			<path class="st3" d="M232.9,92.2c-2.4-4.1-8.3-5.2-12.7-5.1c-4.2,0.2-9.7,1.5-11.9,5.6c-0.3,0.6,1.1,0.5,1.3,0.1
					c2.1-3.8,7.4-4.9,11.4-4.8c3.8,0.1,8.5,1.2,10.6,4.8C231.9,93.1,233.3,92.7,232.9,92.2L232.9,92.2z"/>
			<path id="XMLID_29_" class="st1" d="M196.4,81.6c-0.1,3-1.9,5.3-4.1,5.3c-2.2,0-4-2.5-3.9-5.5c0.1-3,1.9-5.3,4.1-5.3
					C194.7,76.2,196.5,78.6,196.4,81.6z"/>

			<ellipse id="XMLID_18_" transform="matrix(2.175438e-02 -0.9998 0.9998 2.175438e-02 161.98 331.0887)" class="st1" cx="250.2" cy="82.8" rx="5.4" ry="4"/>
			<circle class="st3" cx="190" cy="39" r="2.2"/>
			<circle class="st3" cx="196.3" cy="39" r="2.2"/>
			<circle class="st3" cx="183.9" cy="39" r="2.2"/>
			<g>
				<path class="st3" d="M259.7,28.3h-81.4c-2.9,0-5.2,2.9-5.2,6.6v70.2c0,3.6,2.3,6.6,5.2,6.6h81.4c2.9,0,5.2-2.9,5.2-6.6V34.9
						C264.9,31.3,262.6,28.3,259.7,28.3z M263.3,49.1v55.5c0,2.6-1.6,4.6-3.7,4.6h-81.2c-2,0-3.7-2.1-3.7-4.6V49.1v-0.5h0.5h87.6
						h0.5V49.1z M263.3,45.4V46h-0.5h-87.6h-0.5v-0.5v-9.6c0-3,1.6-5.2,3.7-5.2h81.2c2,0,3.7,2.4,3.7,5.2V45.4z"/>
			</g>
		</g>
	</g>
	<rect x="174.7" y="47.5" class="st5" width="88.6" height="2.2"/>
</svg>
