<svg width="391px" height="386px" viewBox="345 689 391 386" version="1.1" 
    xmlns="http://www.w3.org/2000/svg" 
    xmlns:xlink="http://www.w3.org/1999/xlink">
    <!-- Generator: Sketch 39.1 (31720) - http://www.bohemiancoding.com/sketch -->
    <desc>Created with Sketch.</desc>
    <defs>
        <polygon id="path-1" points="0.8812312 95.1596639 45.1457039 95.1596639 45.1457039 0.604013445 0.8812312 0.604013445 0.8812312 95.1596639"></polygon>
    </defs>
    <g id="search" stroke="none" stroke-width="1" fill="none" fill-rule="evenodd" transform="translate(540.561628, 881.704416) rotate(-50.000000) translate(-540.561628, -881.704416) translate(413.561628, 734.204416)">
        <path fill="#dc3545" d="M229.84975,46.6178235 C232.15225,48.1829496 234.14475,50.1787983 235.70725,52.4876723 C237.26975,50.1787983 239.26225,48.1829496 241.56475,46.6178235 C239.26225,45.0526975 237.26975,43.0568487 235.70725,40.750479 C234.14475,43.0568487 232.15225,45.0526975 229.84975,46.6178235 M239.45725,64.7282101 L231.95725,64.7282101 C231.95725,56.8124286 225.52975,50.3741261 217.62975,50.3741261 L217.62975,42.861521 C225.52975,42.861521 231.95725,36.4232185 231.95725,28.5099412 L239.45725,28.5099412 C239.45725,36.4232185 245.88725,42.861521 253.78725,42.861521 L253.78725,50.3741261 C245.88725,50.3741261 239.45725,56.8124286 239.45725,64.7282101" id="Fill-1"></path>
        <path fill="#dc3545" d="M32.06525,224.347778 C34.36775,225.912904 36.36025,227.908753 37.92275,230.215123 C39.48525,227.908753 41.47775,225.912904 43.78025,224.347778 C41.47775,222.782652 39.48525,220.786803 37.92275,218.480434 C36.36025,220.786803 34.36775,222.782652 32.06525,224.347778 M41.67275,242.455661 L34.17275,242.455661 C34.17275,234.542383 27.74525,228.104081 19.84275,228.104081 L19.84275,220.591476 C27.74525,220.591476 34.17275,214.153173 34.17275,206.239896 L41.67275,206.239896 C41.67275,214.153173 48.10275,220.591476 56.00275,220.591476 L56.00275,228.104081 C48.10275,228.104081 41.67275,234.542383 41.67275,242.455661" id="Fill-3"></path>
        <path fill="#9ec7ff" d="M128.01275,78.9768672 C102.40525,78.9768672 81.57275,99.8443798 81.57275,125.494918 C81.57275,151.145455 102.40525,172.012968 128.01275,172.012968 C153.62025,172.012968 174.45275,151.145455 174.45275,125.494918 C174.45275,99.8443798 153.62025,78.9768672 128.01275,78.9768672 M128.01275,179.525573 C98.27025,179.525573 74.07275,155.289909 74.07275,125.494918 C74.07275,95.7024303 98.27025,71.4642622 128.01275,71.4642622 C157.75525,71.4642622 181.95275,95.7024303 181.95275,125.494918 C181.95275,155.289909 157.75525,179.525573 128.01275,179.525573" id="Fill-5"></path>
        <path fill="#9ec7ff" d="M169.84625,125.495418 L162.34625,125.495418 C162.34625,106.533603 146.94375,91.1052168 128.01375,91.1052168 L128.01375,83.5926118 C151.08125,83.5926118 169.84625,102.38915 169.84625,125.495418" id="Fill-7"></path>
        <path fill="#9ec7ff" d="M147.02875,162.831062 L143.61375,156.142339 C149.71875,153.012087 154.70875,148.183987 158.04125,142.181415 L164.59625,145.830037 C160.53875,153.142306 154.46375,159.022171 147.02875,162.831062" id="Fill-9"></path>
        <path d="M128.01275,64.1963176 C94.27025,64.1963176 66.81775,91.6949563 66.81775,125.496671 C66.81775,159.295881 94.27025,186.794519 128.01275,186.794519 C161.75525,186.794519 189.20775,159.295881 189.20775,125.496671 C189.20775,91.6949563 161.75525,64.1963176 128.01275,64.1963176 M128.01275,194.307124 C90.13525,194.307124 59.31775,163.43783 59.31775,125.496671 C59.31775,87.5530067 90.13525,56.6837126 128.01275,56.6837126 C165.89025,56.6837126 196.70775,87.5530067 196.70775,125.496671 C196.70775,163.43783 165.89025,194.307124 128.01275,194.307124" id="Fill-11" fill="#545E65"></path>
        <polygon id="Fill-13" fill="#545E65" points="140.45525 207.547089 115.57025 207.547089 115.57025 190.551072 123.07025 190.551072 123.07025 200.034484 132.95525 200.034484 132.95525 190.551072 140.45525 190.551072"></polygon>
        <g id="Group-17" transform="translate(105.000000, 199.430471)">
            <mask id="mask-2" fill="white">
                <use xlink:href="#path-1"></use>
            </mask>
            <g id="Clip-16"></g>
            <path d="M14.27725,8.11661849 L8.39975,81.1716941 C8.26475,82.8620303 8.81975,84.4747361 9.96475,85.7168202 C11.10975,86.9614084 12.67225,87.6475597 14.36225,87.6475597 L31.66475,87.6475597 C33.35225,87.6475597 34.91475,86.9614084 36.05975,85.7168202 C37.20475,84.4747361 37.76225,82.8620303 37.62725,81.1716941 L31.74725,8.11661849 L14.27725,8.11661849 Z M31.66475,95.1601647 L14.36225,95.1601647 C10.60725,95.1601647 6.99725,93.575005 4.45225,90.8128706 C1.90725,88.0482319 0.62225,84.3169714 0.92475,80.5681815 L7.35725,0.604013445 L38.66725,0.604013445 L45.10225,80.5706857 C45.40475,84.3169714 44.11725,88.0507361 41.57225,90.8128706 C39.02725,93.575005 35.41725,95.1601647 31.66475,95.1601647 L31.66475,95.1601647 Z" id="Fill-15" fill="#545E65" mask="url(#mask-2)"></path>
        </g>
        <polygon id="Fill-18" fill="#545E65" points="248.1225 144.152222 216.26 139.201415 217.41 131.778961 249.2725 136.727264"></polygon>
        <polygon id="Fill-20" fill="#545E65" points="158.02475 33.4953059 150.92475 31.0737429 161.32475 0.502448739 168.42475 2.92401176"></polygon>
        <polygon id="Fill-22" fill="#545E65" points="86.9115 34.9675261 75.259 4.85450084 82.2515 2.13994622 93.904 32.2529714"></polygon>
        <polygon id="Fill-24" fill="#545E65" points="40.371 79.1701916 12.121 63.6040739 15.736 57.0205277 43.986 72.5866454"></polygon>
        <polygon id="Fill-26" fill="#545E65" points="1.455 149.260793 2.84217094e-13 141.890928 31.63 135.625415 33.085 142.995281"></polygon>
        <polygon id="Fill-28" fill="#545E65" points="204.35675 218.510234 183.12675 194.204452 188.77175 189.258654 210.00175 213.564435"></polygon>
    </g>
</svg>